<?xml version="1.0" standalone="no"?>
<!DOCTYPE svg PUBLIC "-//W3C//DTD SVG 20010904//EN"
 "http://www.w3.org/TR/2001/REC-SVG-20010904/DTD/svg10.dtd">
<svg version="1.0" xmlns="http://www.w3.org/2000/svg"
 width="704.000000pt" height="704.000000pt" viewBox="0 0 704.000000 704.000000"
 preserveAspectRatio="xMidYMid meet">
<metadata>
Created by potrace 1.11, written by Peter Selinger 2001-2013
</metadata>
<g transform="translate(0.000000,704.000000) scale(0.100000,-0.100000)"
fill="#000000" stroke="none">
<path d="M3036 7015 c-11 -8 -36 -15 -57 -15 -58 0 -190 -30 -239 -55 -25 -12
-70 -25 -100 -28 -55 -7 -228 -60 -330 -102 -30 -12 -86 -35 -125 -50 -86 -34
-355 -165 -373 -182 -7 -7 -20 -13 -28 -13 -8 0 -14 -4 -14 -10 0 -5 -7 -10
-15 -10 -8 0 -15 -3 -15 -7 0 -5 -35 -26 -78 -48 -42 -22 -83 -48 -90 -57 -7
-10 -20 -18 -28 -18 -8 0 -14 -4 -14 -10 0 -5 -7 -10 -15 -10 -8 0 -15 -4 -15
-10 0 -5 -4 -10 -10 -10 -5 0 -18 -8 -28 -17 -10 -10 -30 -27 -46 -38 -15 -11
-36 -27 -46 -35 -10 -8 -28 -22 -41 -30 -12 -8 -40 -32 -63 -53 -23 -21 -53
-46 -68 -55 -16 -9 -28 -20 -28 -25 0 -11 -52 -67 -63 -67 -8 0 -125 -119
-162 -165 -11 -14 -28 -28 -37 -31 -10 -3 -18 -11 -18 -18 0 -6 -19 -32 -43
-57 -24 -24 -48 -51 -53 -60 -11 -20 -63 -86 -85 -109 -8 -9 -18 -24 -22 -33
-3 -9 -10 -17 -15 -17 -5 0 -15 -13 -22 -30 -7 -16 -16 -30 -21 -30 -5 0 -9
-6 -9 -13 0 -8 -9 -22 -19 -31 -11 -10 -34 -46 -52 -82 -18 -35 -37 -64 -41
-64 -4 0 -8 -6 -8 -14 0 -8 -4 -16 -8 -18 -8 -3 -30 -44 -154 -288 -21 -41
-38 -78 -38 -82 0 -4 -13 -36 -30 -71 -16 -36 -30 -71 -30 -77 0 -7 -6 -26
-14 -43 -29 -65 -88 -244 -101 -309 -8 -37 -23 -93 -34 -125 -18 -55 -47 -213
-70 -388 -14 -104 -14 -667 0 -770 24 -180 50 -328 64 -363 8 -20 26 -86 41
-147 14 -60 39 -146 56 -190 16 -44 40 -111 54 -150 14 -38 39 -99 56 -135 70
-151 131 -275 137 -280 3 -3 13 -21 23 -41 9 -19 33 -62 54 -95 21 -32 45 -71
54 -86 17 -29 48 -73 68 -93 6 -8 12 -16 12 -20 0 -10 44 -69 58 -78 6 -4 12
-15 12 -22 0 -8 4 -15 8 -15 4 0 15 -12 24 -28 9 -15 30 -42 47 -60 17 -17 31
-35 31 -38 0 -9 64 -77 226 -238 164 -163 189 -186 204 -186 6 0 10 -6 10 -14
0 -8 8 -17 18 -20 9 -3 29 -16 44 -28 58 -50 68 -58 73 -58 3 0 13 -7 22 -16
43 -38 79 -64 89 -64 6 0 19 -9 29 -20 10 -11 24 -20 32 -20 7 0 13 -6 13 -13
0 -8 20 -22 45 -33 25 -10 45 -22 45 -26 0 -4 5 -8 12 -8 6 0 19 -6 27 -14 9
-8 52 -33 96 -56 44 -24 87 -49 96 -56 8 -8 19 -14 23 -14 4 0 60 -25 124 -56
112 -54 346 -146 442 -173 25 -7 56 -17 70 -22 14 -4 63 -18 109 -29 46 -12
94 -28 106 -36 13 -9 72 -22 132 -29 59 -8 133 -21 163 -29 82 -24 861 -23
905 0 17 9 82 22 145 30 79 9 118 18 126 28 6 9 44 23 85 31 176 37 398 113
596 206 35 16 67 29 73 29 5 0 10 5 10 10 0 6 7 10 15 10 17 0 99 41 103 52 2
4 12 8 22 8 10 0 20 3 22 8 2 4 26 18 53 32 28 13 64 34 80 45 17 12 42 27 58
35 15 7 27 17 27 22 0 4 6 8 13 8 6 0 26 11 42 25 42 35 46 38 85 59 19 11 40
24 45 28 6 5 20 16 32 26 12 10 34 27 49 38 15 10 42 33 60 49 18 17 54 48 80
70 25 22 55 48 65 58 11 9 22 17 25 17 8 0 196 192 214 219 8 12 33 42 55 65
22 24 51 58 65 75 14 18 32 41 40 51 8 10 26 33 40 50 14 17 35 44 48 58 12
15 25 36 28 47 4 10 12 24 18 31 6 6 18 22 26 34 8 12 23 33 33 45 9 13 17 28
17 34 0 6 4 11 8 11 5 0 16 15 26 33 9 17 28 52 43 77 90 158 191 375 258 555
39 102 42 112 93 297 17 59 33 111 36 116 7 11 65 343 77 437 4 39 8 183 9
321 0 218 -3 273 -25 418 -14 92 -25 187 -25 212 0 24 -12 77 -26 117 -14 39
-41 126 -59 192 -41 148 -85 276 -131 380 -7 17 -25 57 -39 90 -34 77 -111
230 -164 324 -22 41 -41 78 -41 82 0 5 -4 9 -10 9 -5 0 -10 7 -10 15 0 8 -4
15 -8 15 -5 0 -17 18 -27 41 -10 22 -26 46 -34 52 -16 12 -71 91 -71 102 0 5
-12 20 -62 78 -15 18 -42 55 -60 84 -18 29 -39 52 -45 53 -7 0 -13 3 -13 8 0
4 -11 20 -25 36 -14 16 -25 33 -25 38 0 4 -7 8 -15 8 -8 0 -15 4 -15 10 0 11
-225 236 -300 300 -29 25 -64 55 -79 67 -36 31 -41 35 -81 63 -19 13 -41 30
-48 37 -7 7 -34 25 -60 40 -26 15 -59 39 -74 53 -15 14 -39 32 -55 40 -15 8
-30 17 -33 21 -3 3 -20 11 -37 18 -18 8 -33 17 -33 21 0 4 -8 10 -17 14 -10 3
-40 19 -68 35 -85 51 -404 201 -426 201 -4 0 -32 11 -61 24 -101 45 -270 95
-378 110 -25 4 -63 17 -85 30 -40 23 -141 46 -206 46 -19 0 -47 7 -63 15 -42
22 -921 22 -950 0z"/>
</g>
</svg>
